# xmcd
#
# Track frame offsets:
#	150
#	16499
#	29923
#	43497
#	60746
#	74545
#	88119
#	104918
#	123892
#	145266
#
# Disc length: 2179 seconds
#
# Revision: 0
# Processed by: cddbd v1.5.2PL0 Copyright (c) Steve Scherf et al.
# Submitted via: EasyCDDAExtractor 10.0.2.1
#
DISCID=9f08810a
DTITLE=J.B. Jacobs - Solid Gospel
DYEAR=2004
DGENRE=Gospel
TTITLE0=He Never Stopped Loving Me
TTITLE1=On The Wings Of A Dove
TTITLE2=Take Up Thy Cross
TTITLE3=He Hideth My Soul
TTITLE4=I Believe In A Hill Called Mt. Calvary
TTITLE5=Rest On That Shore
TTITLE6=Somewhere In The Shadows
TTITLE7=He Looked Beyond My Faults
TTITLE8=Just A Closer Walk With Thee
TTITLE9=How Long Has It Been
EXTD=
EXTT0=
EXTT1=
EXTT2=
EXTT3=
EXTT4=
EXTT5=
EXTT6=
EXTT7=
EXTT8=
EXTT9=
PLAYORDER=
